HIERARCHY
ROOT hip
{
  OFFSET 0.00112043 5.09927 -9.65472
  CHANNELS 6 Xposition Yposition Zposition Zrotation Xrotation Yrotation
  JOINT abdomen
  {
    OFFSET 0 -1.186 -1.5018
    CHANNELS 3 Zrotation Xrotation Yrotation
    JOINT abdomen2
    {
      OFFSET 0 9.964 0.2134
      CHANNELS 3 Zrotation Xrotation Yrotation
      JOINT chest
      {
        OFFSET 0 13.134 -3.2573
        CHANNELS 3 Zrotation Xrotation Yrotation
        JOINT neck
        {
          OFFSET 0 20.686 -1.6905
          CHANNELS 3 Zrotation Xrotation Yrotation
          JOINT head
          {
            OFFSET 0 7.238 -0.1237
            CHANNELS 3 Zrotation Xrotation Yrotation
            End Site
            {
              OFFSET 0 0 0
            }
          }
        }
        JOINT lCollar
        {
          OFFSET 1.7069 20.075 5.0056
          CHANNELS 3 Zrotation Xrotation Yrotation
          JOINT lShldr
          {
            OFFSET 13.6458 -0.047 -4.849
            CHANNELS 3 Zrotation Xrotation Yrotation
            JOINT lForeArm
            {
              OFFSET 28.3255 -0.9759 2.2888
              CHANNELS 3 Zrotation Xrotation Yrotation
              JOINT lHand
              {
                OFFSET 22.1583 -0.53 10.8316
                CHANNELS 3 Zrotation Xrotation Yrotation
                JOINT lThumb1
                {
                  OFFSET 0.786 0.112 2.5817
                  CHANNELS 3 Zrotation Xrotation Yrotation
                  JOINT lThumb2
                  {
                    OFFSET 0.3601 -0.878 4.2331
                    CHANNELS 3 Zrotation Xrotation Yrotation
                    JOINT lThumb2_End
                    {
                      OFFSET 1.8127 -1.216 2.2227
                      CHANNELS 3 Zrotation Xrotation Yrotation
                      End Site
                      {
                        OFFSET 0.0181 -0.0122 0.0222
                      }
                    }
                  }
                }
                JOINT lCarpal1
                {
                  OFFSET 0.9571 1.114 1.7695
                  CHANNELS 3 Zrotation Xrotation Yrotation
                  JOINT lIndex1
                  {
                    OFFSET 4.1246 0.487 4.1451
                    CHANNELS 3 Zrotation Xrotation Yrotation
                    JOINT lIndex2
                    {
                      OFFSET 3.4052 -1.454 2.7682
                      CHANNELS 3 Zrotation Xrotation Yrotation
                      JOINT lIndex2_End
                      {
                        OFFSET 1.4531 -1.795 1.2713
                        CHANNELS 3 Zrotation Xrotation Yrotation
                        End Site
                        {
                          OFFSET 0.0145 -0.0179 0.0127
                        }
                      }
                    }
                  }
                  JOINT lMid1
                  {
                    OFFSET 5.6954 0.21 2.1184
                    CHANNELS 3 Zrotation Xrotation Yrotation
                    JOINT lMid2
                    {
                      OFFSET 3.9766 -1.54 2.3863
                      CHANNELS 3 Zrotation Xrotation Yrotation
                      JOINT lMid2_End
                      {
                        OFFSET 1.4042 -1.926 1.125
                        CHANNELS 3 Zrotation Xrotation Yrotation
                        End Site
                        {
                          OFFSET 0.014 -0.0193 0.0113
                        }
                      }
                    }
                  }
                }
                JOINT lCarpal2
                {
                  OFFSET 2.0956 0.66 -0.3894
                  CHANNELS 3 Zrotation Xrotation Yrotation
                  JOINT lRing1
                  {
                    OFFSET 5.0395 -0.09 2.4971
                    CHANNELS 3 Zrotation Xrotation Yrotation
                    JOINT lRing2
                    {
                      OFFSET 3.7921 -1.552 1.4806
                      CHANNELS 3 Zrotation Xrotation Yrotation
                      JOINT lRing2_End
                      {
                        OFFSET 1.4655 -1.808 0.9609
                        CHANNELS 3 Zrotation Xrotation Yrotation
                        End Site
                        {
                          OFFSET 0.0147 -0.0181 0.0096
                        }
                      }
                    }
                  }
                  JOINT lPinky1
                  {
                    OFFSET 4.9141 -1.269 0.3591
                    CHANNELS 3 Zrotation Xrotation Yrotation
                    JOINT lPinky2
                    {
                      OFFSET 3.1477 -1.685 0.8462
                      CHANNELS 3 Zrotation Xrotation Yrotation
                      JOINT lPinky2_End
                      {
                        OFFSET 0.8055 -1.585 0.7955
                        CHANNELS 3 Zrotation Xrotation Yrotation
                        End Site
                        {
                          OFFSET 0.0081 -0.0158 0.008
                        }
                      }
                    }
                  }
                }
              }
            }
          }
        }
        JOINT rCollar
        {
          OFFSET -1.7069 20.075 5.0056
          CHANNELS 3 Zrotation Xrotation Yrotation
          JOINT rShldr
          {
            OFFSET -13.6458 -0.047 -4.849
            CHANNELS 3 Zrotation Xrotation Yrotation
            JOINT rForeArm
            {
              OFFSET -28.3255 -0.9759 2.2888
              CHANNELS 3 Zrotation Xrotation Yrotation
              JOINT rHand
              {
                OFFSET -22.1583 -0.53 10.8316
                CHANNELS 3 Zrotation Xrotation Yrotation
                JOINT rThumb1
                {
                  OFFSET -0.786 0.112 2.5817
                  CHANNELS 3 Zrotation Xrotation Yrotation
                  JOINT rThumb2
                  {
                    OFFSET -0.3601 -0.878 4.2331
                    CHANNELS 3 Zrotation Xrotation Yrotation
                    JOINT rThumb2_End
                    {
                      OFFSET -1.8127 -1.216 2.2227
                      CHANNELS 3 Zrotation Xrotation Yrotation
                      End Site
                      {
                        OFFSET -0.0181 -0.0122 0.0222
                      }
                    }
                  }
                }
                JOINT rCarpal1
                {
                  OFFSET -0.9571 1.114 1.7695
                  CHANNELS 3 Zrotation Xrotation Yrotation
                  JOINT rIndex1
                  {
                    OFFSET -4.1246 0.487 4.1451
                    CHANNELS 3 Zrotation Xrotation Yrotation
                    JOINT rIndex2
                    {
                      OFFSET -3.4052 -1.454 2.7682
                      CHANNELS 3 Zrotation Xrotation Yrotation
                      JOINT rIndex2_End
                      {
                        OFFSET -1.4531 -1.795 1.2713
                        CHANNELS 3 Zrotation Xrotation Yrotation
                        End Site
                        {
                          OFFSET -0.0145 -0.018 0.0127
                        }
                      }
                    }
                  }
                  JOINT rMid1
                  {
                    OFFSET -5.6954 0.21 2.1184
                    CHANNELS 3 Zrotation Xrotation Yrotation
                    JOINT rMid2
                    {
                      OFFSET -3.9766 -1.54 2.3863
                      CHANNELS 3 Zrotation Xrotation Yrotation
                      JOINT rMid2_End
                      {
                        OFFSET -1.4042 -1.926 1.125
                        CHANNELS 3 Zrotation Xrotation Yrotation
                        End Site
                        {
                          OFFSET -0.014 -0.0193 0.0113
                        }
                      }
                    }
                  }
                }
                JOINT rCarpal2
                {
                  OFFSET -2.0956 0.66 -0.3894
                  CHANNELS 3 Zrotation Xrotation Yrotation
                  JOINT rRing1
                  {
                    OFFSET -5.0395 -0.09 2.4971
                    CHANNELS 3 Zrotation Xrotation Yrotation
                    JOINT rRing2
                    {
                      OFFSET -3.7921 -1.552 1.4806
                      CHANNELS 3 Zrotation Xrotation Yrotation
                      JOINT rRing2_End
                      {
                        OFFSET -1.4655 -1.808 0.9609
                        CHANNELS 3 Zrotation Xrotation Yrotation
                        End Site
                        {
                          OFFSET -0.0147 -0.0181 0.0096
                        }
                      }
                    }
                  }
                  JOINT rPinky1
                  {
                    OFFSET -4.9141 -1.269 0.3592
                    CHANNELS 3 Zrotation Xrotation Yrotation
                    JOINT rPinky2
                    {
                      OFFSET -3.1477 -1.685 0.8462
                      CHANNELS 3 Zrotation Xrotation Yrotation
                      JOINT rPinky2_End
                      {
                        OFFSET -0.8055 -1.585 0.7955
                        CHANNELS 3 Zrotation Xrotation Yrotation
                        End Site
                        {
                          OFFSET -0.0081 -0.0158 0.008
                        }
                      }
                    }
                  }
                }
              }
            }
          }
        }
      }
    }
  }
  JOINT lThigh
  {
    OFFSET 8.367 -8.2066 0.5982
    CHANNELS 3 Zrotation Xrotation Yrotation
    JOINT lShin
    {
      OFFSET 2.1923 -43.463 -0.4932
      CHANNELS 3 Zrotation Xrotation Yrotation
      JOINT lFoot
      {
        OFFSET 0.7333 -45.8593 -2.6451
        CHANNELS 3 Zrotation Xrotation Yrotation
        End Site
        {
          OFFSET 2.6618 -4.2699 12.3931
        }
      }
    }
  }
  JOINT rThigh
  {
    OFFSET -8.367 -8.2066 0.5982
    CHANNELS 3 Zrotation Xrotation Yrotation
    JOINT rShin
    {
      OFFSET -2.1923 -43.463 -0.4931
      CHANNELS 3 Zrotation Xrotation Yrotation
      JOINT rFoot
      {
        OFFSET -0.7333 -45.8593 -2.6451
        CHANNELS 3 Zrotation Xrotation Yrotation
        End Site
        {
          OFFSET -2.6618 -4.2699 12.3931
        }
      }
    }
  }
}
MOTION
Frames:	5
Frame Time:	0.0333333
-18.9164 92.5843 -55.8651 0 0 -66.0085 0.769645 -0.695898 1.72293 1.56004 -1.36827 3.45546 1.56003 -1.36828 3.45542 -5.55764 25.4769 16.4506 3.09408 8.71201 12.6202 -17.9433 -1.49847 1.78704 -43.6562 -8.2932 4.55229 -2.64662 42.0606 -13.8337 -1.62123 -6.41847 -3.40966 -0 0 3.97569e-016 0 0 -1.19271e-015 -3.18055e-015 0 1.19271e-015 0 0 -3.97569e-016 3.18055e-015 4.77083e-015 1.07344e-014 3.18055e-015 -1.59028e-015 -3.97569e-016 3.18055e-015 -7.95139e-016 -0 3.18055e-015 4.77083e-015 1.07344e-014 3.18055e-015 -1.59028e-015 -3.97569e-016 3.18055e-015 -7.95139e-016 -0 0 0 -3.97569e-016 3.18055e-015 4.77083e-015 1.07344e-014 3.18055e-015 -1.59028e-015 -3.97569e-016 3.18055e-015 -7.95139e-016 -0 3.18055e-015 4.77083e-015 1.07344e-014 3.18055e-015 -1.59028e-015 -3.97569e-016 3.18055e-015 -7.95139e-016 -0 22.7245 15.8864 7.41397 27.3957 49.4042 4.81987 -5.16373 -9.63195 3.54935 13.4224 -31.1642 -3.39202 2.54969e-006 1.88743e-006 5.78169e-007 7.72635e-007 -1.16192e-006 -3.65629e-006 4.77083e-015 -9.54166e-015 -3.18055e-015 -4.77083e-015 6.36111e-015 -0 2.54969e-006 1.88743e-006 5.78169e-007 7.72635e-007 -1.16192e-006 -3.65629e-006 -1.59028e-015 -6.36111e-015 9.54166e-015 2.54969e-006 1.88743e-006 5.78169e-007 7.72635e-007 -1.16192e-006 -3.65629e-006 -1.59028e-015 -6.36111e-015 9.54166e-015 -4.77083e-015 6.36111e-015 -0 2.54969e-006 1.88743e-006 5.78169e-007 7.72635e-007 -1.16192e-006 -3.65629e-006 -1.59028e-015 -6.36111e-015 9.54166e-015 2.54969e-006 1.88743e-006 5.78169e-007 7.72635e-007 -1.16192e-006 -3.65629e-006 -1.59028e-015 -6.36111e-015 9.54166e-015 5.72718 11.7805 0.0190907 -5.45459 0.101309 1.15286 -14.1008 1.56122 55.5476 -8.09279 2.07982 -13.2437 5.11947 -1.34241 -1.13263 -13.4195 7.71488 11.5422 
-19.0261 92.55 -56.0138 0 0 -66.0085 0.800169 -0.694121 1.62193 1.61984 -1.36525 3.25374 1.61984 -1.36524 3.25375 -5.55407 25.376 16.4443 3.09778 8.62104 12.6309 -17.9433 -1.4985 1.78706 -43.5038 -8.29605 4.54765 -2.64662 42.0606 -13.8338 -1.62122 -6.41846 -3.40968 -1.27222e-014 3.97569e-015 1.15295e-014 -6.36111e-015 6.36111e-015 1.07344e-014 3.18055e-015 5.56597e-015 1.15295e-014 -1.59028e-014 -7.95139e-016 3.97569e-016 -9.54166e-015 6.36111e-015 1.15295e-014 -3.18055e-015 2.38542e-015 1.23246e-014 3.18055e-015 5.56597e-015 1.03368e-014 -9.54166e-015 6.36111e-015 1.15295e-014 -3.18055e-015 2.38542e-015 1.23246e-014 3.18055e-015 5.56597e-015 1.03368e-014 -1.59028e-014 -7.95139e-016 3.97569e-016 -9.54166e-015 6.36111e-015 1.15295e-014 -3.18055e-015 2.38542e-015 1.23246e-014 3.18055e-015 5.56597e-015 1.03368e-014 -9.54166e-015 6.36111e-015 1.15295e-014 -3.18055e-015 2.38542e-015 1.23246e-014 3.18055e-015 5.56597e-015 1.03368e-014 22.6381 15.8778 7.34916 27.3958 49.4042 4.81983 -5.16375 -9.63196 3.54935 13.4224 -31.1642 -3.39202 1.59028e-015 6.36111e-015 -3.18055e-015 1.59028e-015 3.18055e-015 -6.36111e-015 1.59028e-015 6.36111e-015 -0 1.59028e-015 3.18055e-015 3.18055e-015 1.59028e-015 0 6.36111e-015 -3.18055e-015 0 -9.54166e-015 0 9.54166e-015 -0 1.59028e-015 0 6.36111e-015 -3.18055e-015 0 -9.54166e-015 0 9.54166e-015 -0 1.59028e-015 3.18055e-015 3.18055e-015 1.59028e-015 0 6.36111e-015 -3.18055e-015 0 -9.54166e-015 0 9.54166e-015 -0 1.59028e-015 0 6.36111e-015 -3.18055e-015 0 -9.54166e-015 0 9.54166e-015 -0 5.84771 11.8247 -0.0145755 -5.45443 0.0691964 1.15289 -14.1896 1.53653 55.5542 -7.97976 2.10784 -13.2466 5.12005 -1.3407 -1.12163 -13.4896 7.45642 11.5031 
-19.1158 92.5219 -56.1354 0 0 -66.0085 0.825171 -0.692819 1.53928 1.66884 -1.36315 3.08875 1.66884 -1.36315 3.08873 -5.55056 25.2751 16.438 3.10149 8.53006 12.6417 -17.9433 -1.49844 1.78702 -43.3792 -8.29839 4.54384 -2.6466 42.0606 -13.8338 -1.62122 -6.41846 -3.40967 -6.36111e-015 -7.95139e-016 -5.96354e-016 -6.36111e-015 -7.95139e-016 -9.93923e-016 -6.36111e-015 0 -7.95139e-016 -3.18055e-015 7.95139e-016 -1.98785e-016 -3.18055e-015 4.77083e-015 1.15295e-014 -3.18055e-015 0 -5.96354e-016 -3.18055e-015 0 -7.95139e-016 -3.18055e-015 4.77083e-015 1.15295e-014 -3.18055e-015 0 -5.96354e-016 -3.18055e-015 0 -7.95139e-016 -3.18055e-015 7.95139e-016 -1.98785e-016 -3.18055e-015 4.77083e-015 1.15295e-014 -3.18055e-015 0 -5.96354e-016 -3.18055e-015 0 -7.95139e-016 -3.18055e-015 4.77083e-015 1.15295e-014 -3.18055e-015 0 -5.96354e-016 -3.18055e-015 0 -7.95139e-016 22.5673 15.8708 7.296 27.3958 49.4042 4.81985 -5.16374 -9.63195 3.54935 13.4224 -31.1642 -3.39202 1.52118e-006 -3.02345e-006 -2.17895e-006 -9.81199e-007 1.72997e-006 3.14218e-006 4.77083e-015 3.18055e-015 -0 3.18055e-015 -1.59028e-014 -6.36111e-015 1.52118e-006 -3.02345e-006 -2.17895e-006 -9.81199e-007 1.72997e-006 3.14218e-006 7.95139e-015 -6.36111e-015 3.18055e-015 1.52118e-006 -3.02345e-006 -2.17895e-006 -9.81199e-007 1.72997e-006 3.14218e-006 7.95139e-015 -6.36111e-015 3.18055e-015 3.18055e-015 -1.59028e-014 -6.36111e-015 1.52118e-006 -3.02345e-006 -2.17895e-006 -9.81199e-007 1.72997e-006 3.14218e-006 7.95139e-015 -6.36111e-015 3.18055e-015 1.52118e-006 -3.02345e-006 -2.17895e-006 -9.81199e-007 1.72997e-006 3.14218e-006 7.95139e-015 -6.36111e-015 3.18055e-015 5.94631 11.8534 -0.042095 -5.45435 0.0567489 1.15266 -14.2622 1.50979 55.5589 -7.88709 2.13209 -13.2491 5.12065 -1.34163 -1.11237 -13.5471 7.24596 11.4708 
-19.2055 92.4938 -56.2571 0 0 -66.0085 0.850187 -0.691615 1.45664 1.71786 -1.36132 2.92367 1.71787 -1.36132 2.92369 -5.54705 25.1742 16.4318 3.10522 8.4391 12.6524 -17.9434 -1.49842 1.78699 -43.2545 -8.30075 4.54003 -2.6466 42.0606 -13.8338 -1.62122 -6.41846 -3.40967 -9.54166e-015 0 -7.95139e-016 -6.36111e-015 1.59028e-015 1.98785e-016 -6.36111e-015 -7.95139e-016 -3.97569e-016 -3.18055e-015 7.95139e-016 -3.97569e-016 -6.36111e-015 4.77083e-015 1.07344e-014 -9.54166e-015 7.95139e-016 -3.97569e-016 -9.54166e-015 7.95139e-016 -9.93923e-016 -6.36111e-015 4.77083e-015 1.07344e-014 -9.54166e-015 7.95139e-016 -3.97569e-016 -9.54166e-015 7.95139e-016 -9.93923e-016 -3.18055e-015 7.95139e-016 -3.97569e-016 -6.36111e-015 4.77083e-015 1.07344e-014 -9.54166e-015 7.95139e-016 -3.97569e-016 -9.54166e-015 7.95139e-016 -9.93923e-016 -6.36111e-015 4.77083e-015 1.07344e-014 -9.54166e-015 7.95139e-016 -3.97569e-016 -9.54166e-015 7.95139e-016 -9.93923e-016 22.4965 15.864 7.24285 27.3958 49.4042 4.81983 -5.16377 -9.63197 3.54934 13.4224 -31.1642 -3.39201 -5.29669e-031 3.18055e-015 9.54166e-015 -1.58901e-030 9.54166e-015 9.54166e-015 -1.59028e-015 6.36111e-015 3.18055e-015 -5.29669e-031 3.18055e-015 9.54166e-015 7.95139e-015 1.27222e-014 6.36111e-015 -4.77083e-015 0 -0 -4.77083e-015 3.18055e-015 3.18055e-015 7.95139e-015 1.27222e-014 6.36111e-015 -4.77083e-015 0 -0 -4.77083e-015 3.18055e-015 3.18055e-015 -5.29669e-031 3.18055e-015 9.54166e-015 7.95139e-015 1.27222e-014 6.36111e-015 -4.77083e-015 0 -0 -4.77083e-015 3.18055e-015 3.18055e-015 7.95139e-015 1.27222e-014 6.36111e-015 -4.77083e-015 0 -0 -4.77083e-015 3.18055e-015 3.18055e-015 6.04496 11.8877 -0.0696999 -5.45423 0.0339613 1.15257 -14.3349 1.48781 55.564 -7.79338 2.16035 -13.2516 5.12119 -1.35085 -1.10224 -13.6049 7.03969 11.4387 
-19.2952 92.4657 -56.3788 0 0 -66.0085 0.875212 -0.690505 1.37395 1.76692 -1.35974 2.75861 1.76692 -1.35974 2.75857 -5.54365 25.0732 16.4257 3.10898 8.34811 12.6631 -17.9433 -1.49844 1.78702 -43.1299 -8.30309 4.53624 -2.64661 42.0606 -13.8338 -1.62122 -6.41845 -3.40967 -1.37935e-033 3.97569e-016 1.98785e-016 2.75869e-033 -7.95139e-016 1.98785e-016 3.18055e-015 0 3.97569e-016 0 3.97569e-016 -0 -9.76577e-031 4.77083e-015 1.17283e-014 8.27607e-033 7.95139e-016 -5.96354e-016 3.18055e-015 0 -1.98785e-016 -9.76577e-031 4.77083e-015 1.17283e-014 8.27607e-033 7.95139e-016 -5.96354e-016 3.18055e-015 0 -1.98785e-016 0 3.97569e-016 -0 -9.76577e-031 4.77083e-015 1.17283e-014 8.27607e-033 7.95139e-016 -5.96354e-016 3.18055e-015 0 -1.98785e-016 -9.76577e-031 4.77083e-015 1.17283e-014 8.27607e-033 7.95139e-016 -5.96354e-016 3.18055e-015 0 -1.98785e-016 22.4258 15.8572 7.1898 27.3957 49.4042 4.81986 -5.16374 -9.63196 3.54935 13.4224 -31.1642 -3.39203 2.92354e-006 1.01444e-006 9.12537e-007 5.49971e-007 -1.28802e-006 9.63578e-007 -1.1816e-006 2.63826e-007 6.16671e-006 1.59028e-015 0 6.36111e-015 2.92354e-006 1.01444e-006 9.12537e-007 5.49971e-007 -1.28802e-006 9.63578e-007 -1.1816e-006 2.63826e-007 6.16671e-006 2.92354e-006 1.01444e-006 9.12537e-007 5.49971e-007 -1.28802e-006 9.63578e-007 -1.1816e-006 2.63826e-007 6.16671e-006 1.59028e-015 0 6.36111e-015 2.92354e-006 1.01444e-006 9.12537e-007 5.49971e-007 -1.28802e-006 9.63578e-007 -1.1816e-006 2.63826e-007 6.16671e-006 2.92354e-006 1.01444e-006 9.12537e-007 5.49971e-007 -1.28802e-006 9.63578e-007 -1.1816e-006 2.63826e-007 6.16671e-006 6.14362 11.9193 -0.0973101 -5.45411 0.0157955 1.15246 -14.4075 1.4638 55.5689 -7.70172 2.18002 -13.2542 5.12172 -1.34277 -1.09398 -13.6625 6.82491 11.4056 
